<svg width="166" height="32" viewBox="0 0 166 32" fill="none" xmlns="http://www.w3.org/2000/svg">
<path d="M48.1405 8.68164V11.0535H44.2852V23.3228H41.3827V11.0535H37.5273V8.68164H48.1405Z" fill="white"/>
<path d="M54.6194 12.0565C55.2204 11.7057 55.9094 11.5327 56.6814 11.5327V14.6161H55.9143C55.0005 14.6161 54.3116 14.8335 53.8522 15.2684C53.388 15.7032 53.1584 16.4592 53.1584 17.5315V23.3178H50.2559V11.7007H53.1584V13.5043C53.5297 12.8916 54.0184 12.4073 54.6194 12.0565Z" fill="white"/>
<path d="M58.5777 14.3446C59.0419 13.4354 59.6673 12.7386 60.4638 12.2494C61.2603 11.7603 62.1447 11.5132 63.1269 11.5132C63.982 11.5132 64.7345 11.6861 65.3746 12.037C66.0196 12.3878 66.5327 12.8276 66.9187 13.3563V11.701H69.8407V23.318H66.9187V21.6182C66.5473 22.1617 66.0294 22.6163 65.3746 22.9721C64.7198 23.3279 63.9624 23.5058 63.1024 23.5058C62.1349 23.5058 61.2554 23.2538 60.4589 22.7498C59.6624 22.2457 59.037 21.5391 58.5728 20.62C58.1086 19.7059 57.8789 18.6534 57.8789 17.4625C57.8838 16.2914 58.1135 15.2538 58.5777 14.3446ZM66.5082 15.6738C66.2297 15.1648 65.8584 14.7745 65.3893 14.4977C64.9202 14.226 64.4169 14.0876 63.8745 14.0876C63.3321 14.0876 62.8386 14.221 62.3793 14.4879C61.9248 14.7547 61.5535 15.1401 61.2701 15.6491C60.9866 16.158 60.8449 16.7658 60.8449 17.4625C60.8449 18.1593 60.9866 18.772 61.2701 19.2958C61.5535 19.8195 61.9248 20.2198 62.389 20.5014C62.8532 20.7831 63.3468 20.9215 63.8696 20.9215C64.4071 20.9215 64.9153 20.7831 65.3844 20.5113C65.8535 20.2396 66.2297 19.8492 66.5034 19.3353C66.7819 18.8263 66.9187 18.2136 66.9187 17.5021C66.9236 16.7955 66.7868 16.1877 66.5082 15.6738Z" fill="white"/>
<path d="M72.6362 14.3446C73.1005 13.4354 73.7308 12.7386 74.5322 12.2494C75.3335 11.7602 76.2228 11.5132 77.205 11.5132C77.9526 11.5132 78.6611 11.6762 79.3404 12.0073C80.0196 12.3334 80.5571 12.7732 80.9577 13.3168V7.80225H83.9042V23.318H80.9577V21.5984C80.5961 22.1716 80.0929 22.6312 79.443 22.982C78.7931 23.3328 78.0406 23.5058 77.1855 23.5058C76.218 23.5058 75.3335 23.2538 74.5322 22.7497C73.7308 22.2457 73.0956 21.5391 72.6362 20.62C72.172 19.7059 71.9424 18.6534 71.9424 17.4625C71.9424 16.2914 72.1769 15.2538 72.6362 14.3446ZM80.5717 15.6738C80.2932 15.1648 79.9218 14.7745 79.4527 14.4977C78.9837 14.226 78.4804 14.0876 77.938 14.0876C77.4005 14.0876 76.9021 14.221 76.4427 14.4879C75.9883 14.7547 75.6169 15.1401 75.3335 15.6491C75.0501 16.158 74.9084 16.7658 74.9084 17.4625C74.9084 18.1593 75.0501 18.772 75.3335 19.2958C75.6169 19.8195 75.9883 20.2198 76.4525 20.5014C76.9167 20.7831 77.4102 20.9215 77.9331 20.9215C78.4706 20.9215 78.9788 20.7831 79.4479 20.5113C79.9169 20.2396 80.2932 19.8492 80.5668 19.3353C80.8405 18.8263 80.9822 18.2136 80.9822 17.5021C80.9822 16.7955 80.8454 16.1877 80.5717 15.6738Z" fill="white"/>
<path d="M97.3462 18.3915H88.9465C89.0149 19.2315 89.3081 19.8887 89.8163 20.3631C90.3293 20.8375 90.9548 21.0746 91.7024 21.0746C92.7823 21.0746 93.5495 20.6052 94.0039 19.6713H97.1361C96.8038 20.788 96.1686 21.7071 95.2304 22.4286C94.2922 23.15 93.1341 23.5107 91.7659 23.5107C90.6616 23.5107 89.6697 23.2636 88.7901 22.7646C87.9106 22.2704 87.2265 21.5638 86.7378 20.6596C86.2492 19.7504 86 18.7028 86 17.5119C86 16.3112 86.2394 15.2538 86.7232 14.3446C87.2069 13.4354 87.8861 12.7386 88.7559 12.2494C89.6257 11.7603 90.6274 11.5132 91.761 11.5132C92.8507 11.5132 93.8329 11.7504 94.6929 12.2247C95.5578 12.6991 96.2272 13.3761 96.7061 14.2507C97.1849 15.1253 97.4195 16.1284 97.4195 17.2599C97.4292 17.675 97.3999 18.0555 97.3462 18.3915ZM94.4192 16.4199C94.4046 15.6639 94.1358 15.0611 93.613 14.6065C93.0852 14.1518 92.4451 13.9245 91.6829 13.9245C90.9646 13.9245 90.3586 14.1469 89.87 14.5867C89.3814 15.0265 89.0784 15.6392 88.966 16.4199H94.4192Z" fill="white"/>
<path d="M103.908 12.0565C104.509 11.7057 105.198 11.5327 105.97 11.5327V14.6161H105.203C104.29 14.6161 103.605 14.8335 103.141 15.2684C102.677 15.7032 102.447 16.4592 102.447 17.5315V23.3178H99.5449V11.7007H102.447V13.5043C102.819 12.8916 103.307 12.4073 103.908 12.0565Z" fill="white"/>
<path d="M123.846 11.7012L120.489 23.3182H117.356L115.26 15.2046L113.164 23.3182H110.012L106.631 11.7012H109.577L111.61 20.5511L113.809 11.7012H116.878L119.032 20.5313L121.065 11.7012H123.846Z" fill="white"/>
<path d="M127.534 22.7646C126.65 22.2705 125.956 21.5639 125.448 20.6596C124.945 19.7504 124.69 18.7029 124.69 17.512C124.69 16.3261 124.949 15.2736 125.467 14.3644C125.985 13.4552 126.694 12.7535 127.593 12.2544C128.492 11.7603 129.494 11.5083 130.598 11.5083C131.702 11.5083 132.704 11.7554 133.603 12.2544C134.502 12.7486 135.211 13.4552 135.729 14.3644C136.247 15.2736 136.506 16.3211 136.506 17.512C136.506 18.7029 136.237 19.7504 135.709 20.6596C135.177 21.5688 134.458 22.2705 133.554 22.7646C132.65 23.2588 131.634 23.5108 130.515 23.5108C129.416 23.5058 128.419 23.2588 127.534 22.7646ZM132.005 20.5608C132.47 20.3039 132.836 19.9135 133.115 19.3947C133.393 18.8758 133.53 18.2483 133.53 17.5071C133.53 16.4052 133.242 15.5552 132.67 14.9573C132.093 14.3644 131.395 14.0679 130.564 14.0679C129.733 14.0679 129.039 14.3644 128.477 14.9573C127.915 15.5503 127.637 16.4002 127.637 17.5071C127.637 18.6139 127.911 19.4589 128.458 20.0568C129.005 20.6497 129.694 20.9462 130.52 20.9462C131.048 20.9512 131.541 20.8178 132.005 20.5608Z" fill="white"/>
<path d="M143.014 12.0565C143.615 11.7057 144.304 11.5327 145.076 11.5327V14.6161H144.309C143.395 14.6161 142.711 14.8335 142.247 15.2684C141.783 15.7032 141.553 16.4592 141.553 17.5315V23.3178H138.65V11.7007H141.553V13.5043C141.924 12.8916 142.413 12.4073 143.014 12.0565Z" fill="white"/>
<path d="M164.705 12.8422C165.57 13.7168 166 14.9373 166 16.4987V23.3128H163.098V16.899C163.098 15.9898 162.868 15.2931 162.414 14.8138C161.959 14.3295 161.334 14.0923 160.547 14.0923C159.76 14.0923 159.135 14.3344 158.671 14.8138C158.206 15.298 157.977 15.9898 157.977 16.899V23.3178H155.074V16.899C155.074 15.9898 154.845 15.2931 154.39 14.8138C153.936 14.3295 153.31 14.0923 152.524 14.0923C151.722 14.0923 151.087 14.3344 150.628 14.8138C150.163 15.298 149.934 15.9898 149.934 16.899V23.3178H147.031V11.7007H149.934V13.1041C150.305 12.6149 150.789 12.2294 151.375 11.9527C151.962 11.6711 152.607 11.5327 153.315 11.5327C154.214 11.5327 155.016 11.7254 155.719 12.1108C156.423 12.4963 156.97 13.0448 157.356 13.7563C157.728 13.0843 158.27 12.5457 158.983 12.1405C159.697 11.7353 160.464 11.5327 161.295 11.5327C162.702 11.5327 163.84 11.9725 164.705 12.8422Z" fill="white"/>
<path d="M16.0961 10.8267C14.2882 10.8267 12.8223 12.3782 12.8223 14.2905V28.5364C12.8223 30.4487 14.2882 32.0002 16.0961 32.0002C17.9041 32.0002 19.37 30.4487 19.37 28.5364V14.2905C19.37 12.3733 17.9041 10.8267 16.0961 10.8267Z" fill="#2CD4B0"/>
<path d="M26.2153 0C24.4073 0 22.9414 1.55158 22.9414 3.46387V28.4422C26.5573 28.4422 29.4891 25.3391 29.4891 21.5145V3.46387C29.494 1.55158 28.0281 0 26.2153 0ZM27.0557 5.33663C26.4303 5.33663 25.927 4.80296 25.927 4.14083C25.927 3.47869 26.4303 2.94503 27.0557 2.94503C27.6812 2.94503 28.1845 3.47869 28.1845 4.14083C28.1845 4.80296 27.6812 5.33663 27.0557 5.33663Z" fill="#2CD4B0"/>
<path d="M0.718415 6.23584C0.0489813 6.23584 -0.253974 7.12034 0.259096 7.57494L3.39615 10.352V21.5045C3.39615 24.7658 5.89797 27.4143 8.98128 27.4143V7.41187C8.98128 6.76456 8.48287 6.23584 7.87207 6.23584H3.39126H0.718415Z" fill="#2CD4B0"/>
</svg>
