<svg width="24" height="24" viewBox="0 0 24 24" fill="none" xmlns="http://www.w3.org/2000/svg">
<path d="M12 23.5C18.3513 23.5 23.5 18.3513 23.5 12C23.5 5.64873 18.3513 0.5 12 0.5C5.64873 0.5 0.5 5.64873 0.5 12C0.5 18.3513 5.64873 23.5 12 23.5Z" fill="#1877F2"/>
<path d="M16.4767 15.3242L16.9867 12.0002H13.7972V9.84319C13.7972 8.93369 14.2427 8.04719 15.6712 8.04719H17.1212V5.21719C16.2698 5.07941 15.4095 5.00421 14.5472 4.99219C11.9202 4.99219 10.2032 6.58419 10.2032 9.46669V12.0002H7.2832V15.3242H10.2032V23.3602C11.3939 23.5469 12.6065 23.5469 13.7972 23.3602V15.3242H16.4767Z" fill="white"/>
</svg>
