<svg width="24" height="24" viewBox="0 0 24 24" fill="none" xmlns="http://www.w3.org/2000/svg">
<rect width="24" height="24" rx="12" fill="#007BB5"/>
<path d="M18.3899 4.49951H5.60546C4.99507 4.49951 4.49902 4.98375 4.49902 5.58112V18.418C4.49902 19.0154 4.99507 19.5005 5.60546 19.5005H18.3899C19.0015 19.5005 19.4995 19.0154 19.4995 18.418V5.58112C19.4995 4.98375 19.0015 4.49951 18.3899 4.49951Z" fill="#007BB5"/>
<path d="M6.72153 10.1231H8.9487V17.282H6.72153V10.1231ZM7.83573 6.56445C8.54746 6.56445 9.1253 7.14251 9.1253 7.85465C9.1253 8.567 8.54746 9.14504 7.83573 9.14504C7.12115 9.14504 6.54492 8.567 6.54492 7.85465C6.54492 7.14251 7.12114 6.56445 7.83573 6.56445Z" fill="white"/>
<path d="M10.3447 10.123H12.4775V11.1016H12.508C12.8047 10.5388 13.5306 9.94531 14.6131 9.94531C16.8659 9.94531 17.2822 11.4276 17.2822 13.3557V17.2818H15.0575V13.8005C15.0575 12.9703 15.0432 11.9023 13.9014 11.9023C12.7437 11.9023 12.567 12.8071 12.567 13.741V17.2818H10.3447V10.123Z" fill="white"/>
</svg>
