<svg width="24" height="24" viewBox="0 0 24 24" fill="none" xmlns="http://www.w3.org/2000/svg">
<path d="M12 23.5C18.3513 23.5 23.5 18.3513 23.5 12C23.5 5.64873 18.3513 0.5 12 0.5C5.64873 0.5 0.5 5.64873 0.5 12C0.5 18.3513 5.64873 23.5 12 23.5Z" fill="url(#paint0_linear)"/>
<path d="M8.28418 12.8406L9.64968 16.6171C9.64968 16.6171 9.82018 16.9706 10.0027 16.9706C10.1852 16.9706 12.9027 14.1441 12.9027 14.1441L15.9237 8.30908L8.33268 11.8661L8.28418 12.8406Z" fill="#C8DAEA"/>
<path d="M10.0937 13.8091L9.83172 16.5926C9.83172 16.5926 9.72222 17.4456 10.5747 16.5926C11.4272 15.7396 12.2437 15.0821 12.2437 15.0821L10.0937 13.8091Z" fill="#A9C6D8"/>
<path d="M8.30867 12.9753L5.50267 12.0608C5.50267 12.0608 5.16767 11.9248 5.27517 11.6163C5.29717 11.5523 5.34217 11.4983 5.47517 11.4048C6.09717 10.9713 16.9852 7.0578 16.9852 7.0578C17.1421 7.00267 17.311 6.99076 17.4742 7.0233C17.5191 7.03722 17.5594 7.06278 17.5912 7.09739C17.623 7.13199 17.6451 7.1744 17.6552 7.2203C17.6746 7.30129 17.6827 7.38458 17.6792 7.4678C17.6792 7.5398 17.6697 7.6068 17.6632 7.7118C17.5967 8.7813 15.6132 16.7673 15.6132 16.7673C15.6132 16.7673 15.4947 17.2343 15.0692 17.2503C14.9644 17.254 14.8599 17.2365 14.7621 17.1989C14.6642 17.1613 14.575 17.1043 14.4997 17.0313C13.6647 16.3128 10.7792 14.3738 10.1417 13.9473C10.1278 13.9374 10.1162 13.9246 10.1076 13.9099C10.099 13.8951 10.0935 13.8788 10.0917 13.8618C10.0827 13.8168 10.1317 13.7618 10.1317 13.7618C10.1317 13.7618 15.1557 9.2958 15.2892 8.8273C15.2997 8.7913 15.2607 8.7733 15.2082 8.7888C14.8742 8.9118 9.08967 12.5643 8.45117 12.9678C8.40491 12.9814 8.35611 12.9839 8.30867 12.9753Z" fill="white"/>
<defs>
<linearGradient id="paint0_linear" x1="12" y1="23.5" x2="12" y2="0.5" gradientUnits="userSpaceOnUse">
<stop stop-color="#1D93D2"/>
<stop offset="1" stop-color="#38B0E3"/>
</linearGradient>
</defs>
</svg>
