<svg width="24" height="24" viewBox="0 0 24 24" fill="none" xmlns="http://www.w3.org/2000/svg">
<circle cx="12" cy="12" r="12" fill="#2CD4B0"/>
<path fill-rule="evenodd" clip-rule="evenodd" d="M9.16516 19.2022L9.16136 7.4431C9.16122 7.01361 8.65617 6.7963 8.35713 7.09706L5.06331 10.4099C4.92907 10.5449 5.02248 10.7789 5.21065 10.7789L6.36782 10.7793L6.36962 16.3378C6.37013 17.9192 7.62174 19.2017 9.16516 19.2022ZM10.8067 12.0161C10.8064 11.0858 11.5422 10.3319 12.4501 10.3322C13.358 10.3325 14.0942 11.0869 14.0945 12.0172L14.0969 19.3162C14.0972 20.2464 13.3614 21.0003 12.4535 21C11.5456 20.9997 10.8094 20.2453 10.8091 19.3151L10.8067 12.0161ZM17.3526 5C16.4447 4.99969 15.709 5.75357 15.7093 6.68383L15.7133 19.2044C17.5291 19.205 19.0006 17.6973 19 15.8368L18.997 6.68494C18.9967 5.75468 18.2605 5.00031 17.3526 5ZM17.8221 7.08109C18.0603 7.01576 18.2016 6.76489 18.1377 6.52076C18.0738 6.27662 17.8289 6.13167 17.5906 6.197C17.3524 6.26233 17.2111 6.5132 17.275 6.75733C17.3389 7.00147 17.5839 7.14642 17.8221 7.08109Z" fill="white"/>
</svg>
